<?xml version="1.0" encoding="UTF-8"?>
<svg xmlns="http://www.w3.org/2000/svg" xmlns:xlink="http://www.w3.org/1999/xlink" width="300px" height="132px" viewBox="0 0 299 132" version="1.1">
<g id="surface1">
<path style=" stroke:none;fill-rule:nonzero;fill:rgb(0%,0%,0%);fill-opacity:1;" d="M 25.761719 4.722656 C 24.773438 4.867188 24.046875 5.304688 23.699219 5.957031 C 23.621094 6.125 23.015625 8.636719 22.363281 11.566406 C 21.703125 14.492188 21.164062 16.882812 21.152344 16.894531 C 21.140625 16.894531 20.625 17.039062 20.011719 17.207031 C 18.429688 17.644531 15.179688 18.742188 13.464844 19.40625 L 12.015625 19.976562 L 11.972656 26.335938 C 11.949219 29.835938 11.972656 32.886719 12.007812 33.132812 C 12.050781 33.371094 12.152344 33.605469 12.230469 33.660156 C 12.320312 33.71875 13.09375 33.761719 13.96875 33.761719 C 17.253906 33.761719 22.980469 34.144531 26.972656 34.613281 C 37.566406 35.859375 45.738281 38.730469 55.332031 44.566406 L 56.355469 45.179688 L 56.308594 44.65625 C 56.050781 42.128906 54.683594 37.835938 53.539062 36.015625 C 53.25 35.558594 50.402344 33.570312 47.980469 32.136719 C 41.367188 28.210938 34.257812 25.933594 26.320312 25.191406 C 25.46875 25.113281 24.753906 25.023438 24.71875 24.992188 C 24.671875 24.957031 25.019531 24.84375 25.46875 24.746094 C 34.023438 22.90625 42.957031 23.769531 50.894531 27.222656 C 59.839844 31.117188 67.386719 38.171875 71.859375 46.820312 C 73.671875 50.320312 74.828125 53.503906 75.65625 57.296875 C 76.667969 61.917969 76.835938 67.257812 76.117188 72.035156 C 75.703125 74.761719 74.570312 79.257812 74.269531 79.371094 C 74.191406 79.402344 73.585938 79.269531 72.910156 79.089844 C 70.835938 78.519531 69.761719 78.371094 67.933594 78.441406 C 66.949219 78.472656 66.050781 78.574219 65.636719 78.6875 C 64.738281 78.933594 63.089844 79.742188 62.304688 80.324219 L 61.679688 80.796875 L 61.835938 81.253906 C 62.394531 82.835938 62.699219 85.484375 62.542969 87.535156 C 62.183594 92.4375 59.863281 95.804688 56.230469 96.746094 C 55.859375 96.835938 55.097656 96.949219 54.539062 96.980469 L 53.507812 97.058594 L 53.4375 98.023438 C 53.226562 101.132812 51.410156 104.28125 48.441406 106.726562 C 46.175781 108.578125 41.835938 110.195312 37.441406 110.832031 C 36.050781 111.035156 35.480469 111.070312 33.574219 111.011719 C 30.804688 110.933594 29.371094 110.65625 27.757812 109.847656 C 27.230469 109.578125 27.171875 109.578125 26.164062 109.691406 C 22.105469 110.171875 17.847656 109.21875 12.871094 106.71875 C 12.453125 106.503906 12.085938 106.335938 12.050781 106.335938 C 12.015625 106.335938 11.996094 107.511719 11.996094 108.960938 L 11.996094 111.585938 L 12.523438 111.921875 C 14.070312 112.910156 17.332031 114.1875 20.054688 114.871094 C 20.851562 115.074219 21.132812 115.195312 21.199219 115.367188 C 21.242188 115.488281 21.769531 117.789062 22.363281 120.46875 C 22.957031 123.148438 23.496094 125.484375 23.5625 125.664062 C 23.753906 126.144531 24.683594 126.917969 25.300781 127.097656 C 25.738281 127.222656 27.410156 127.253906 34.414062 127.253906 L 42.992188 127.253906 L 43.53125 126.984375 C 43.820312 126.839844 44.269531 126.480469 44.539062 126.191406 L 45.007812 125.664062 L 46.128906 120.265625 L 47.25 114.859375 L 47.867188 114.691406 C 48.617188 114.480469 51.800781 113.425781 52.753906 113.066406 L 53.4375 112.808594 L 57.496094 116.386719 C 59.71875 118.347656 61.710938 120.019531 61.902344 120.097656 C 62.53125 120.324219 63.574219 120.277344 64.132812 119.988281 C 65.042969 119.515625 76.824219 110.734375 77.261719 110.195312 C 77.699219 109.679688 78.023438 108.804688 78.023438 108.199219 C 78.023438 107.996094 77.125 105.863281 75.769531 102.902344 L 73.527344 97.945312 L 74.570312 96.554688 C 75.152344 95.792969 75.996094 94.589844 76.453125 93.894531 L 77.292969 92.628906 L 77.855469 92.695312 C 80.558594 93.011719 88.324219 93.671875 88.628906 93.605469 C 89.132812 93.515625 89.851562 92.863281 90.175781 92.214844 C 90.535156 91.507812 95.0625 77.070312 95.140625 76.410156 C 95.21875 75.65625 95.019531 75.007812 94.523438 74.503906 C 94.253906 74.222656 92.496094 73.15625 89.492188 71.460938 L 84.863281 68.847656 L 84.863281 66.234375 C 84.863281 64.8125 84.828125 63.332031 84.792969 62.972656 L 84.726562 62.308594 L 89.558594 59.460938 C 92.203125 57.902344 94.46875 56.511719 94.59375 56.375 C 94.894531 56.050781 95.097656 55.253906 95.007812 54.695312 C 94.960938 54.445312 93.761719 50.699219 92.339844 46.382812 C 89.804688 38.71875 89.726562 38.519531 89.277344 38.070312 C 88.492188 37.273438 88.582031 37.273438 82.351562 37.980469 C 79.347656 38.316406 76.859375 38.585938 76.847656 38.5625 C 76.824219 38.542969 76.363281 37.902344 75.828125 37.128906 C 75.289062 36.355469 74.425781 35.199219 73.910156 34.546875 C 73.394531 33.910156 72.988281 33.324219 73.011719 33.257812 C 73.046875 33.203125 74.03125 30.902344 75.222656 28.164062 C 77.375 23.195312 77.375 23.195312 77.328125 22.488281 C 77.285156 21.671875 76.96875 21.167969 76.140625 20.59375 C 75.871094 20.402344 72.957031 18.339844 69.683594 15.996094 C 66.410156 13.664062 63.507812 11.632812 63.214844 11.496094 C 62.496094 11.128906 61.96875 11.046875 61.355469 11.226562 C 60.917969 11.351562 60.277344 11.878906 57.015625 14.839844 C 54.90625 16.757812 53.070312 18.429688 52.914062 18.574219 L 52.621094 18.84375 L 51.0625 18.292969 C 50.199219 17.992188 48.808594 17.554688 47.980469 17.328125 C 47.148438 17.09375 46.457031 16.902344 46.445312 16.894531 C 46.433594 16.882812 45.894531 14.480469 45.234375 11.566406 C 44.582031 8.636719 43.976562 6.089844 43.898438 5.898438 C 43.707031 5.460938 43.339844 5.113281 42.765625 4.855469 C 42.351562 4.667969 41.757812 4.65625 34.359375 4.644531 C 29.988281 4.632812 26.109375 4.667969 25.761719 4.722656 Z M 25.761719 4.722656 "/>
<path style=" stroke:none;fill-rule:nonzero;fill:rgb(0%,0%,0%);fill-opacity:1;" d="M 11.984375 35.691406 C 11.816406 36.015625 11.804688 37.238281 11.984375 37.65625 L 12.117188 37.992188 L 13.652344 38.125 C 21.332031 38.808594 27.8125 39.976562 33.148438 41.648438 L 34.742188 42.140625 L 34.929688 41.570312 C 35.179688 40.816406 35.570312 40.121094 36.175781 39.40625 C 36.445312 39.089844 36.625 38.800781 36.578125 38.777344 C 36.367188 38.640625 33.070312 37.757812 31.5 37.410156 C 26.925781 36.386719 22.433594 35.835938 16.253906 35.558594 C 12.511719 35.390625 12.140625 35.402344 11.984375 35.691406 Z M 11.984375 35.691406 "/>
<path style=" stroke:none;fill-rule:nonzero;fill:rgb(0%,0%,0%);fill-opacity:1;" d="M 56.5 38.921875 C 57.890625 42.308594 58.394531 46.472656 57.789062 49.746094 C 57.699219 50.242188 57.597656 50.824219 57.566406 51.035156 L 57.496094 51.429688 L 58.652344 51.8125 C 63.507812 53.390625 66.992188 55.546875 67.988281 57.574219 C 68.574219 58.777344 68.5625 60.539062 67.957031 61.390625 C 67.464844 62.097656 67.25 62.546875 67.328125 62.734375 C 67.664062 63.621094 69.929688 62.050781 70.871094 60.28125 C 71.566406 58.96875 71.867188 57.734375 71.9375 55.917969 C 72.027344 53.292969 71.566406 51.195312 70.34375 48.738281 C 68.449219 44.933594 65.457031 42.152344 60.816406 39.921875 C 59.617188 39.347656 56.5 38.136719 56.21875 38.136719 C 56.195312 38.136719 56.320312 38.484375 56.5 38.921875 Z M 56.5 38.921875 "/>
<path style=" stroke:none;fill-rule:nonzero;fill:rgb(0%,0%,0%);fill-opacity:1;" d="M 11.996094 39.773438 C 11.828125 40.203125 11.859375 41.792969 12.039062 42.21875 C 12.1875 42.578125 12.242188 42.613281 13.027344 42.734375 C 19.472656 43.789062 25.402344 45.070312 30.042969 46.382812 C 31.050781 46.664062 31.882812 46.875 31.894531 46.863281 C 31.90625 46.839844 31.871094 46.449219 31.824219 45.988281 C 31.757812 45.484375 31.769531 44.734375 31.835938 44.117188 C 31.90625 43.542969 31.949219 43.0625 31.949219 43.027344 C 31.949219 42.882812 28.328125 41.960938 25.726562 41.445312 C 22.878906 40.875 13.375 39.484375 12.363281 39.484375 C 12.1875 39.484375 12.0625 39.574219 11.996094 39.773438 Z M 11.996094 39.773438 "/>
<path style=" stroke:none;fill-rule:nonzero;fill:rgb(0%,0%,0%);fill-opacity:1;" d="M 39.898438 39.753906 C 37.867188 40.300781 36.511719 42.398438 36.882812 44.441406 C 37.488281 47.785156 41.355469 49.105469 43.820312 46.820312 C 46.164062 44.65625 45.300781 40.761719 42.25 39.808594 C 41.476562 39.5625 40.648438 39.550781 39.898438 39.753906 Z M 43.273438 41.558594 C 43.742188 41.792969 43.945312 42.152344 43.945312 42.714844 C 43.945312 43.128906 43.875 43.273438 43.5625 43.589844 C 43.273438 43.878906 43.09375 43.96875 42.777344 43.96875 C 42.230469 43.96875 41.746094 43.710938 41.535156 43.296875 C 41.320312 42.882812 41.320312 42.578125 41.535156 42.128906 C 41.847656 41.46875 42.609375 41.210938 43.273438 41.558594 Z M 43.273438 41.558594 "/>
<path style=" stroke:none;fill-rule:nonzero;fill:rgb(0%,0%,0%);fill-opacity:1;" d="M 47.386719 43.789062 C 47.320312 44.890625 47.015625 45.898438 46.476562 46.832031 C 45.75 48.0625 44.136719 49.242188 42.644531 49.632812 C 41.613281 49.902344 40.085938 49.859375 39.046875 49.523438 C 36.984375 48.871094 35.347656 47.167969 34.820312 45.136719 C 34.71875 44.753906 34.640625 44.296875 34.640625 44.117188 C 34.640625 43.824219 34.582031 43.78125 34.125 43.65625 C 33.832031 43.578125 33.574219 43.542969 33.53125 43.589844 C 33.371094 43.746094 33.472656 46.503906 33.675781 47.222656 C 34.113281 48.847656 35.3125 50.777344 36.46875 51.730469 C 37.207031 52.347656 38.035156 52.84375 38.203125 52.773438 C 38.539062 52.652344 40.703125 52.269531 41.722656 52.160156 C 42.328125 52.101562 43.84375 52.046875 45.085938 52.046875 C 48.5625 52.046875 51.386719 52.4375 53.875 53.269531 L 55.132812 53.683594 L 55.523438 52.226562 C 56.0625 50.230469 56.253906 49.253906 56.34375 48.007812 L 56.410156 46.941406 L 55.421875 46.414062 C 54.167969 45.765625 51.78125 44.65625 49.335938 43.589844 L 47.453125 42.769531 Z M 47.386719 43.789062 "/>
<path style=" stroke:none;fill-rule:nonzero;fill:rgb(0%,0%,0%);fill-opacity:1;" d="M 208.644531 44.742188 C 208.265625 45.238281 207.949219 45.664062 207.949219 45.699219 C 207.949219 45.742188 208.195312 45.765625 208.5 45.765625 C 209.070312 45.765625 209.09375 45.753906 209.878906 44.6875 C 209.957031 44.585938 209.542969 43.867188 209.394531 43.859375 C 209.363281 43.859375 209.027344 44.261719 208.644531 44.742188 Z M 208.644531 44.742188 "/>
<path style=" stroke:none;fill-rule:nonzero;fill:rgb(0%,0%,0%);fill-opacity:1;" d="M 12.0625 44.777344 C 11.828125 45.160156 11.75 46.15625 11.871094 47.078125 C 12.074219 48.46875 11.75 48.265625 16.0625 49.613281 C 23.742188 52 27.644531 53.035156 30.996094 53.570312 C 32.398438 53.796875 35.234375 53.851562 35.425781 53.660156 C 35.503906 53.582031 35.335938 53.292969 34.808594 52.652344 C 33.84375 51.496094 33.292969 50.65625 32.769531 49.511719 L 32.339844 48.582031 L 29.371094 47.851562 C 27.734375 47.449219 25.011719 46.839844 23.316406 46.503906 C 20.234375 45.886719 12.703125 44.53125 12.386719 44.53125 C 12.296875 44.53125 12.152344 44.644531 12.0625 44.777344 Z M 12.0625 44.777344 "/>
<path style=" stroke:none;fill-rule:nonzero;fill:rgb(0%,0%,0%);fill-opacity:1;" d="M 166.257812 47 C 163.0625 47.671875 160.921875 51.574219 161.417969 55.859375 C 161.652344 57.957031 162.371094 59.59375 163.625 60.863281 C 165.453125 62.714844 167.886719 62.914062 170.09375 61.390625 L 170.507812 61.097656 L 170.507812 57.542969 L 169.867188 58.058594 C 168.925781 58.832031 168.152344 59.148438 167.199219 59.15625 C 166.539062 59.167969 166.335938 59.125 165.890625 58.855469 C 165.25 58.484375 164.667969 57.746094 164.320312 56.890625 C 163.972656 56.003906 163.949219 53.558594 164.273438 52.574219 C 164.566406 51.675781 165.195312 50.835938 165.84375 50.417969 C 166.316406 50.140625 166.507812 50.082031 167.132812 50.082031 C 168.152344 50.082031 168.925781 50.476562 169.824219 51.441406 L 170.507812 52.167969 L 170.507812 48.234375 L 169.824219 47.785156 C 168.714844 47.066406 167.371094 46.773438 166.257812 47 Z M 166.257812 47 "/>
<path style=" stroke:none;fill-rule:nonzero;fill:rgb(0%,0%,0%);fill-opacity:1;" d="M 220.84375 47.011719 C 219.296875 47.3125 217.660156 48.660156 216.816406 50.351562 C 215.136719 53.683594 215.695312 58.449219 218.050781 60.804688 C 219.285156 62.050781 220.820312 62.589844 222.457031 62.355469 C 223.386719 62.230469 224.058594 61.996094 225.136719 61.445312 L 226 60.996094 L 226 53.953125 L 221.289062 53.953125 L 221.289062 56.757812 L 223.421875 56.757812 L 223.421875 57.878906 C 223.421875 59.167969 223.433594 59.15625 222.253906 59.292969 C 220.089844 59.550781 218.5 57.542969 218.488281 54.570312 C 218.488281 52.933594 218.992188 51.632812 219.980469 50.746094 C 221.300781 49.554688 222.949219 49.691406 224.429688 51.105469 C 224.800781 51.453125 225.113281 51.722656 225.113281 51.699219 C 225.125 51.675781 225.191406 50.925781 225.269531 50.027344 C 225.4375 48.132812 225.460938 48.175781 224.304688 47.558594 C 223.242188 46.988281 221.972656 46.785156 220.84375 47.011719 Z M 220.84375 47.011719 "/>
<path style=" stroke:none;fill-rule:nonzero;fill:rgb(0%,0%,0%);fill-opacity:1;" d="M 237.433594 47.042969 C 236.503906 47.246094 235.796875 47.636719 234.976562 48.410156 C 233.410156 49.894531 232.613281 52.011719 232.613281 54.683594 C 232.613281 57.375 233.464844 59.5625 235.078125 61.066406 C 235.863281 61.78125 236.683594 62.199219 237.636719 62.355469 C 238.878906 62.554688 240.347656 62.164062 241.367188 61.34375 L 241.804688 60.996094 L 241.804688 57.398438 L 241.246094 57.925781 C 240.414062 58.699219 239.363281 59.167969 238.441406 59.167969 C 237.566406 59.15625 236.996094 58.898438 236.378906 58.203125 C 235.167969 56.871094 234.855469 54.335938 235.652344 52.214844 C 235.988281 51.316406 236.929688 50.351562 237.691406 50.152344 C 238.800781 49.835938 239.976562 50.285156 241.109375 51.464844 L 241.804688 52.191406 L 241.804688 48.332031 L 241.503906 48.0625 C 241.019531 47.648438 239.910156 47.144531 239.183594 47.011719 C 238.386719 46.863281 238.230469 46.863281 237.433594 47.042969 Z M 237.433594 47.042969 "/>
<path style=" stroke:none;fill-rule:nonzero;fill:rgb(0%,0%,0%);fill-opacity:1;" d="M 187.691406 47.210938 C 185.976562 47.839844 184.621094 49.5 183.894531 51.878906 C 183.613281 52.796875 183.578125 53.042969 183.578125 54.683594 C 183.578125 56.320312 183.613281 56.566406 183.894531 57.488281 C 184.339844 58.957031 184.902344 59.941406 185.808594 60.863281 C 187.019531 62.097656 188.308594 62.566406 189.855469 62.355469 C 193.289062 61.894531 195.574219 57.171875 194.621094 52.550781 C 194.0625 49.847656 192.46875 47.738281 190.550781 47.167969 C 189.757812 46.929688 188.421875 46.953125 187.691406 47.210938 Z M 189.835938 50.261719 C 190.382812 50.417969 191.191406 51.160156 191.539062 51.84375 C 192.355469 53.449219 192.335938 56.039062 191.503906 57.566406 C 190.84375 58.789062 189.800781 59.359375 188.714844 59.125 C 187.324219 58.808594 186.371094 57.273438 186.234375 55.132812 C 186.136719 53.402344 186.539062 51.96875 187.414062 51.027344 C 188.152344 50.230469 188.882812 49.992188 189.835938 50.261719 Z M 189.835938 50.261719 "/>
<path style=" stroke:none;fill-rule:nonzero;fill:rgb(0%,0%,0%);fill-opacity:1;" d="M 207.378906 47.269531 C 206.449219 47.648438 206.011719 47.941406 205.347656 48.671875 C 204.609375 49.464844 204.027344 50.554688 203.625 51.878906 C 203.355469 52.785156 203.320312 53.054688 203.320312 54.625 C 203.320312 56.644531 203.5 57.519531 204.261719 59.089844 C 204.824219 60.246094 205.988281 61.503906 206.941406 61.949219 C 209.742188 63.285156 212.792969 61.613281 214.015625 58.082031 C 214.464844 56.757812 214.597656 55.703125 214.53125 54.121094 C 214.429688 52.035156 213.824219 50.273438 212.738281 48.894531 C 212.144531 48.152344 211.078125 47.402344 210.269531 47.167969 C 209.40625 46.910156 208.128906 46.953125 207.378906 47.269531 Z M 209.800781 50.351562 C 211.089844 50.9375 211.875 52.585938 211.875 54.683594 C 211.875 56.386719 211.414062 57.675781 210.496094 58.519531 C 208.5 60.359375 205.945312 58.226562 205.933594 54.726562 C 205.933594 51.621094 207.839844 49.457031 209.800781 50.351562 Z M 209.800781 50.351562 "/>
<path style=" stroke:none;fill-rule:nonzero;fill:rgb(0%,0%,0%);fill-opacity:1;" d="M 246.996094 47.15625 C 244.449219 47.984375 242.703125 51.035156 242.703125 54.683594 C 242.703125 59.382812 245.582031 62.882812 249.035156 62.34375 C 250.605469 62.109375 252.152344 60.851562 252.992188 59.113281 C 253.722656 57.632812 253.933594 56.65625 253.957031 54.792969 C 253.96875 52.863281 253.765625 51.867188 253.058594 50.398438 C 252.386719 49.007812 251.503906 48.054688 250.347656 47.46875 C 249.574219 47.089844 249.40625 47.054688 248.488281 47.03125 C 247.859375 47.011719 247.285156 47.066406 246.996094 47.15625 Z M 248.992188 50.25 C 250.292969 50.609375 251.332031 52.585938 251.332031 54.683594 C 251.332031 57.53125 249.652344 59.628906 247.769531 59.113281 C 246.761719 58.84375 245.796875 57.566406 245.492188 56.09375 C 245.304688 55.152344 245.414062 53.257812 245.71875 52.472656 C 246.109375 51.453125 246.625 50.800781 247.296875 50.453125 C 247.925781 50.117188 248.339844 50.070312 248.992188 50.25 Z M 248.992188 50.25 "/>
<path style=" stroke:none;fill-rule:nonzero;fill:rgb(0%,0%,0%);fill-opacity:1;" d="M 141.585938 48.90625 L 141.585938 50.351562 L 143.355469 50.386719 L 145.117188 50.417969 L 145.152344 56.164062 L 145.171875 61.917969 L 147.75 61.917969 L 147.75 50.363281 L 151.226562 50.363281 L 151.226562 47.449219 L 141.585938 47.449219 Z M 141.585938 48.90625 "/>
<path style=" stroke:none;fill-rule:nonzero;fill:rgb(0%,0%,0%);fill-opacity:1;" d="M 153.019531 54.683594 L 153.019531 61.917969 L 159.859375 61.917969 L 159.859375 59 L 157.707031 58.976562 L 155.542969 58.945312 L 155.542969 56.027344 L 156.808594 55.996094 L 158.066406 55.960938 L 158.066406 53.054688 L 155.484375 53.054688 L 155.484375 50.363281 L 159.859375 50.363281 L 159.859375 47.449219 L 153.019531 47.449219 Z M 153.019531 54.683594 "/>
<path style=" stroke:none;fill-rule:nonzero;fill:rgb(0%,0%,0%);fill-opacity:1;" d="M 172.414062 54.671875 L 172.414062 61.917969 L 174.769531 61.917969 L 174.769531 57.980469 C 174.769531 55.558594 174.8125 54.066406 174.867188 54.085938 C 174.9375 54.097656 176.40625 55.859375 178.152344 57.992188 C 181.011719 61.46875 181.371094 61.859375 181.695312 61.894531 L 182.054688 61.929688 L 182.054688 47.449219 L 179.699219 47.449219 L 179.699219 51.441406 C 179.699219 53.996094 179.65625 55.410156 179.589844 55.390625 C 179.53125 55.367188 178.03125 53.582031 176.269531 51.429688 C 173.558594 48.109375 173.007812 47.503906 172.738281 47.46875 L 172.414062 47.4375 Z M 172.414062 54.671875 "/>
<path style=" stroke:none;fill-rule:nonzero;fill:rgb(0%,0%,0%);fill-opacity:1;" d="M 196.292969 54.683594 L 196.292969 61.917969 L 203.242188 61.917969 L 203.242188 58.886719 L 198.871094 58.886719 L 198.871094 47.449219 L 196.292969 47.449219 Z M 196.292969 54.683594 "/>
<path style=" stroke:none;fill-rule:nonzero;fill:rgb(0%,0%,0%);fill-opacity:1;" d="M 228.351562 54.683594 L 228.351562 61.917969 L 230.929688 61.917969 L 230.929688 47.449219 L 228.351562 47.449219 Z M 228.351562 54.683594 "/>
<path style=" stroke:none;fill-rule:nonzero;fill:rgb(0%,0%,0%);fill-opacity:1;" d="M 12.230469 50.800781 C 11.847656 51.183594 11.714844 51.890625 11.726562 53.558594 C 11.726562 55.164062 11.882812 56.464844 12.175781 57.53125 L 12.34375 58.125 L 13.09375 58.058594 C 17.117188 57.6875 24.089844 57.316406 27.296875 57.316406 L 29.203125 57.316406 L 29.898438 56.757812 C 30.277344 56.453125 30.960938 55.960938 31.421875 55.65625 L 32.261719 55.121094 L 30.761719 54.917969 C 27.375 54.46875 22.644531 53.382812 15.886719 51.496094 C 14.101562 50.992188 12.601562 50.589844 12.542969 50.589844 C 12.488281 50.589844 12.34375 50.6875 12.230469 50.800781 Z M 12.230469 50.800781 "/>
<path style=" stroke:none;fill-rule:nonzero;fill:rgb(0%,0%,0%);fill-opacity:1;" d="M 56.488281 54.828125 C 56.050781 56.476562 55.960938 56.703125 55.769531 56.679688 C 55.199219 56.632812 53.609375 56.902344 52.8125 57.195312 C 52.027344 57.488281 50.582031 58.28125 50.679688 58.371094 C 50.882812 58.5625 53.160156 59.058594 54.035156 59.113281 C 54.875 59.15625 55.097656 59.203125 55.097656 59.335938 C 55.097656 59.550781 54.414062 59.898438 54.011719 59.898438 C 53.730469 59.898438 53.71875 59.921875 53.777344 60.269531 C 53.855469 60.761719 53.539062 61.402344 53.269531 61.300781 C 53.171875 61.265625 52.53125 61.074219 51.847656 60.886719 C 50.066406 60.390625 49.851562 60.222656 50.804688 60.078125 C 51.074219 60.03125 51.445312 59.933594 51.625 59.851562 C 51.960938 59.707031 51.949219 59.707031 50.859375 59.347656 C 49.539062 58.898438 49.5625 58.898438 48.371094 60.019531 C 47.003906 61.332031 46.109375 62.847656 45.613281 64.734375 C 45.253906 66.078125 45.253906 68.132812 45.613281 69.363281 C 46.398438 72.167969 48.382812 74.164062 51.117188 74.917969 C 52.160156 75.210938 52.375 75.210938 52.632812 74.929688 C 52.734375 74.816406 53.179688 74.582031 53.609375 74.414062 C 54.582031 74.042969 54.726562 73.808594 54.449219 73.023438 C 54.203125 72.316406 54.203125 72.238281 54.539062 72.238281 C 54.851562 72.238281 55.601562 71.621094 55.601562 71.363281 C 55.601562 71.273438 55.535156 71.105469 55.445312 71.015625 C 55.324219 70.867188 55.3125 70.6875 55.402344 70.082031 C 55.535156 69.21875 55.34375 69.308594 57.308594 69.117188 C 59.054688 68.960938 59.371094 68.578125 59.28125 66.742188 C 59.210938 65.4375 58.617188 63.566406 57.40625 60.828125 C 56.96875 59.851562 56.613281 58.988281 56.613281 58.910156 C 56.613281 58.84375 56.824219 58.664062 57.09375 58.53125 C 57.453125 58.339844 57.777344 58.273438 58.496094 58.261719 C 59.582031 58.226562 59.683594 58.171875 60.132812 57.25 C 60.714844 56.0625 60.859375 54.613281 60.433594 54.257812 C 60.332031 54.167969 59.515625 53.839844 58.617188 53.539062 L 56.980469 52.964844 Z M 56.488281 54.828125 "/>
<path style=" stroke:none;fill-rule:nonzero;fill:rgb(0%,0%,0%);fill-opacity:1;" d="M 41.421875 53.730469 C 37.53125 54.15625 33.878906 55.34375 31.714844 56.890625 L 31.210938 57.261719 L 33.394531 57.273438 C 36.902344 57.296875 39.5625 57.699219 41.039062 58.441406 C 42.339844 59.101562 43.460938 60.457031 43.664062 61.636719 C 43.707031 61.882812 43.765625 62.117188 43.796875 62.164062 C 43.820312 62.207031 44.066406 61.816406 44.335938 61.289062 C 45.445312 59.125 47.308594 57.351562 49.628906 56.242188 C 50.691406 55.738281 52.207031 55.308594 53.226562 55.21875 C 53.675781 55.1875 54 55.121094 53.953125 55.074219 C 53.675781 54.816406 51.230469 54.199219 49.324219 53.898438 C 47.957031 53.671875 42.867188 53.570312 41.421875 53.730469 Z M 41.421875 53.730469 "/>
<path style=" stroke:none;fill-rule:nonzero;fill:rgb(0%,0%,0%);fill-opacity:1;" d="M 21.859375 58.789062 C 19.503906 58.886719 17.21875 59.066406 14.515625 59.347656 C 12.164062 59.582031 12.117188 59.605469 11.882812 60.4375 C 11.625 61.390625 11.816406 63.285156 12.207031 63.632812 C 12.355469 63.769531 13.226562 63.8125 17.265625 63.859375 C 19.941406 63.890625 22.746094 63.980469 23.484375 64.035156 C 26.300781 64.296875 29.167969 64.644531 31.445312 65.011719 C 33.484375 65.347656 34.214844 65.484375 35.503906 65.785156 C 35.75 65.84375 35.75 65.832031 35.425781 65.328125 C 34.246094 63.453125 34.515625 60.984375 36.085938 59.527344 L 36.625 59.023438 L 35.882812 58.957031 C 33.082031 58.6875 25.773438 58.597656 21.859375 58.789062 Z M 21.859375 58.789062 "/>
<path style=" stroke:none;fill-rule:nonzero;fill:rgb(0%,0%,0%);fill-opacity:1;" d="M 38.304688 59.941406 C 37.644531 60.191406 37.128906 60.582031 36.757812 61.121094 C 36.320312 61.78125 36.164062 62.398438 36.253906 63.128906 C 36.5 65.191406 38.765625 66.4375 40.582031 65.507812 C 42.722656 64.417969 42.789062 61.367188 40.714844 60.199219 C 40.007812 59.808594 38.96875 59.695312 38.304688 59.941406 Z M 40.007812 61.445312 C 41.296875 62.140625 40.894531 64.195312 39.4375 64.351562 C 38.878906 64.417969 38.441406 64.238281 38.003906 63.769531 C 37.765625 63.519531 37.722656 63.351562 37.722656 62.8125 C 37.722656 62.242188 37.765625 62.109375 38.058594 61.804688 C 38.25 61.601562 38.496094 61.402344 38.621094 61.355469 C 39 61.1875 39.617188 61.234375 40.007812 61.445312 Z M 40.007812 61.445312 "/>
<path style=" stroke:none;fill-rule:nonzero;fill:rgb(0%,0%,0%);fill-opacity:1;" d="M 38.339844 62.8125 L 38.339844 63.261719 L 40.132812 63.261719 L 40.132812 62.367188 L 38.339844 62.367188 Z M 38.339844 62.8125 "/>
<path style=" stroke:none;fill-rule:nonzero;fill:rgb(0%,0%,0%);fill-opacity:1;" d="M 43.023438 65.359375 C 42.734375 65.855469 42.039062 66.472656 41.398438 66.828125 L 40.804688 67.144531 L 41.265625 68.097656 C 41.894531 69.410156 42.835938 70.789062 43.777344 71.777344 C 44.886719 72.953125 45.738281 73.539062 45.738281 73.121094 C 45.738281 73.054688 45.457031 72.574219 45.109375 72.058594 C 44.402344 71.003906 43.84375 69.746094 43.5625 68.625 C 43.316406 67.613281 43.125 66 43.203125 65.472656 C 43.25 65.25 43.261719 65.058594 43.238281 65.058594 C 43.226562 65.058594 43.125 65.191406 43.023438 65.359375 Z M 43.023438 65.359375 "/>
<path style=" stroke:none;fill-rule:nonzero;fill:rgb(0%,0%,0%);fill-opacity:1;" d="M 14.179688 65.292969 C 12.386719 65.429688 12.242188 65.460938 12.050781 65.84375 C 11.90625 66.125 11.882812 66.71875 11.894531 69.488281 C 11.90625 73.042969 11.925781 73.132812 12.476562 73.132812 C 12.613281 73.132812 13.507812 72.652344 14.472656 72.066406 C 17.746094 70.082031 20.335938 68.636719 23.328125 67.144531 L 26.320312 65.652344 L 24.617188 65.519531 C 20.121094 65.171875 16.859375 65.089844 14.179688 65.292969 Z M 14.179688 65.292969 "/>
<path style=" stroke:none;fill-rule:nonzero;fill:rgb(0%,0%,0%);fill-opacity:1;" d="M 25 67.378906 C 17.386719 72.179688 12.847656 75.1875 12.398438 75.726562 C 11.289062 77.039062 10.796875 79.414062 10.90625 82.882812 C 10.996094 85.695312 11.480469 88.1875 12.128906 89.265625 C 12.523438 89.902344 12.703125 89.757812 13.980469 87.660156 C 20.894531 76.410156 24.011719 71.890625 27.890625 67.527344 C 28.585938 66.75 29.148438 66.089844 29.148438 66.054688 C 29.148438 65.988281 27.957031 65.832031 27.589844 65.855469 C 27.488281 65.855469 26.320312 66.539062 25 67.378906 Z M 25 67.378906 "/>
<path style=" stroke:none;fill-rule:nonzero;fill:rgb(0%,0%,0%);fill-opacity:1;" d="M 30.210938 67.378906 C 25.605469 73.179688 21.164062 79.886719 17.152344 87.097656 C 14.886719 91.191406 10.648438 99.863281 10.648438 100.414062 C 10.648438 100.773438 11.289062 101.882812 11.894531 102.554688 C 13.980469 104.898438 17.949219 106.113281 23.554688 106.113281 L 25.75 106.113281 L 25.816406 103.195312 C 26.0625 93.527344 27.171875 85.179688 29.269531 77.316406 C 29.941406 74.773438 31.34375 70.542969 32.261719 68.289062 C 32.824219 66.886719 32.902344 66.628906 32.746094 66.582031 C 32.542969 66.527344 31.277344 66.292969 31.164062 66.292969 C 31.121094 66.292969 30.695312 66.785156 30.210938 67.378906 Z M 30.210938 67.378906 "/>
<path style=" stroke:none;fill-rule:nonzero;fill:rgb(0%,0%,0%);fill-opacity:1;" d="M 34.023438 67.90625 C 30.863281 75.355469 29.191406 90.140625 29.929688 104.09375 C 30.089844 106.90625 30.144531 107.324219 30.367188 107.390625 C 31.625 107.773438 35.929688 107.90625 38.082031 107.636719 C 42.363281 107.085938 45.625 105.683594 47.867188 103.429688 C 48.867188 102.433594 49.449219 101.570312 49.976562 100.355469 C 50.445312 99.257812 50.851562 97.464844 50.636719 97.328125 C 50.570312 97.285156 49.976562 96.9375 49.324219 96.542969 C 47.722656 95.589844 46.566406 94.714844 45.1875 93.378906 C 40.941406 89.273438 38.429688 83.800781 37.597656 76.824219 C 37.417969 75.277344 37.339844 71.40625 37.441406 68.9375 L 37.5 67.605469 L 36.601562 67.390625 C 36.109375 67.277344 35.425781 67.109375 35.089844 67.03125 L 34.460938 66.886719 Z M 34.023438 67.90625 "/>
<path style=" stroke:none;fill-rule:nonzero;fill:rgb(0%,0%,0%);fill-opacity:1;" d="M 38.273438 68.277344 C 38.160156 69.027344 38.304688 72.191406 38.507812 73.527344 C 39.886719 82.476562 44.828125 90.351562 51.117188 93.605469 C 52.261719 94.1875 54.28125 94.894531 54.839844 94.894531 C 55.726562 94.894531 57.207031 93.761719 58.148438 92.371094 C 59.144531 90.890625 59.886719 89.105469 60.3125 87.210938 C 60.636719 85.765625 60.667969 83.6875 60.390625 82.78125 C 60.085938 81.78125 60.097656 81.792969 59.234375 82.140625 C 54.996094 83.890625 49.988281 82.835938 45.683594 79.304688 C 44.730469 78.519531 42.945312 76.691406 42.230469 75.746094 C 40.636719 73.671875 39.382812 71.023438 38.898438 68.757812 C 38.699219 67.816406 38.675781 67.75 38.507812 67.75 C 38.40625 67.75 38.328125 67.941406 38.273438 68.277344 Z M 38.273438 68.277344 "/>
<path style=" stroke:none;fill-rule:nonzero;fill:rgb(0%,0%,0%);fill-opacity:1;" d="M 243.21875 68.421875 L 242.691406 69.097656 L 243.296875 69.097656 C 243.777344 69.097656 243.945312 69.039062 244.136719 68.835938 C 244.273438 68.691406 244.382812 68.535156 244.382812 68.488281 C 244.382812 68.378906 243.914062 67.75 243.824219 67.75 C 243.777344 67.75 243.507812 68.050781 243.21875 68.421875 Z M 243.21875 68.421875 "/>
<path style=" stroke:none;fill-rule:nonzero;fill:rgb(0%,0%,0%);fill-opacity:1;" d="M 39.570312 68.074219 C 39.570312 69.015625 41.03125 72.226562 42.242188 73.917969 C 43.09375 75.121094 45.433594 77.542969 46.488281 78.292969 C 48.183594 79.503906 50.019531 80.378906 51.578125 80.707031 C 52.585938 80.917969 54.335938 80.917969 55.246094 80.707031 C 56.320312 80.449219 57.878906 79.617188 58.4375 78.988281 C 58.695312 78.707031 58.628906 78.664062 57.675781 78.574219 C 55.792969 78.394531 54.785156 78.070312 53.777344 77.296875 C 52.746094 76.5 52.621094 76.453125 51.667969 76.488281 C 49.917969 76.53125 47.765625 76.003906 46.355469 75.1875 C 44.875 74.324219 42.992188 72.628906 42.160156 71.417969 C 41.960938 71.125 41.464844 70.207031 41.0625 69.375 C 40.335938 67.875 40.335938 67.863281 39.953125 67.863281 C 39.652344 67.863281 39.570312 67.90625 39.570312 68.074219 Z M 39.570312 68.074219 "/>
<path style=" stroke:none;fill-rule:nonzero;fill:rgb(0%,0%,0%);fill-opacity:1;" d="M 134.804688 69.542969 C 133.1875 69.800781 131.867188 70.710938 130.824219 72.304688 C 129.816406 73.839844 129.332031 76.128906 129.566406 78.191406 C 130.183594 83.578125 134.566406 86.371094 138.480469 83.855469 L 139.121094 83.453125 L 139.121094 79.832031 L 138.605469 80.3125 C 137.839844 81.019531 136.597656 81.570312 135.722656 81.589844 C 134.734375 81.601562 134.097656 81.332031 133.425781 80.605469 C 132.652344 79.742188 132.371094 78.976562 132.316406 77.453125 C 132.226562 75.589844 132.605469 74.390625 133.582031 73.414062 C 134.21875 72.773438 134.578125 72.628906 135.589844 72.628906 C 136.363281 72.628906 136.574219 72.675781 137.101562 72.953125 C 137.4375 73.132812 138.03125 73.605469 138.425781 73.996094 L 139.121094 74.726562 L 139.121094 70.835938 L 138.582031 70.476562 C 137.886719 70.015625 137.628906 69.890625 137.011719 69.710938 C 136.273438 69.511719 135.464844 69.445312 134.804688 69.542969 Z M 134.804688 69.542969 "/>
<path style=" stroke:none;fill-rule:nonzero;fill:rgb(0%,0%,0%);fill-opacity:1;" d="M 150.328125 69.746094 C 148.277344 70.429688 146.71875 72.40625 146.125 75.097656 C 145.890625 76.152344 145.945312 78.664062 146.226562 79.695312 C 146.550781 80.886719 147.257812 82.164062 148.054688 83.015625 C 148.882812 83.890625 149.644531 84.375 150.609375 84.632812 C 153.882812 85.484375 156.945312 82.882812 157.628906 78.6875 C 157.796875 77.65625 157.707031 75.613281 157.449219 74.648438 C 157.347656 74.277344 157.042969 73.503906 156.765625 72.933594 C 156.089844 71.542969 155.195312 70.609375 153.960938 70.027344 C 153.164062 69.644531 152.976562 69.601562 152.011719 69.578125 C 151.214844 69.554688 150.789062 69.601562 150.328125 69.746094 Z M 152.863281 72.921875 C 154.890625 73.898438 155.585938 77.519531 154.207031 80.03125 C 153.332031 81.636719 151.617188 82.074219 150.25 81.042969 C 148.726562 79.863281 148.246094 76.667969 149.285156 74.535156 C 150.050781 72.964844 151.5625 72.28125 152.863281 72.921875 Z M 152.863281 72.921875 "/>
<path style=" stroke:none;fill-rule:nonzero;fill:rgb(0%,0%,0%);fill-opacity:1;" d="M 270.839844 69.769531 C 269.269531 70.09375 267.542969 71.53125 266.757812 73.167969 C 266.0625 74.59375 265.875 75.535156 265.875 77.394531 C 265.875 78.84375 265.90625 79.136719 266.175781 80.03125 C 266.75 81.90625 267.699219 83.320312 268.96875 84.160156 C 270.726562 85.335938 273.046875 85.316406 274.851562 84.125 L 275.4375 83.734375 L 275.4375 80.179688 L 274.964844 80.59375 C 274.695312 80.816406 274.113281 81.1875 273.652344 81.410156 C 272.925781 81.769531 272.722656 81.816406 271.972656 81.828125 C 270.929688 81.828125 270.425781 81.589844 269.695312 80.773438 C 268.957031 79.953125 268.6875 79.179688 268.621094 77.65625 C 268.574219 76.578125 268.609375 76.285156 268.820312 75.589844 C 269.136719 74.546875 269.695312 73.695312 270.359375 73.257812 C 270.964844 72.851562 271.410156 72.753906 272.230469 72.820312 C 273.058594 72.886719 273.8125 73.289062 274.683594 74.144531 L 275.4375 74.882812 L 275.4375 71.003906 L 274.84375 70.609375 C 273.699219 69.847656 272.085938 69.511719 270.839844 69.769531 Z M 270.839844 69.769531 "/>
<path style=" stroke:none;fill-rule:nonzero;fill:rgb(0%,0%,0%);fill-opacity:1;" d="M 281.601562 69.78125 C 279.574219 70.128906 277.789062 71.898438 276.960938 74.367188 C 275.535156 78.675781 277.464844 83.734375 280.953125 84.820312 C 281.859375 85.101562 283.160156 85.089844 284.011719 84.800781 C 287.957031 83.441406 289.652344 77.40625 287.339844 72.964844 C 286.140625 70.675781 283.84375 69.398438 281.601562 69.78125 Z M 283.453125 73.121094 C 284.304688 73.515625 285.042969 74.511719 285.367188 75.769531 C 285.59375 76.609375 285.570312 78.359375 285.3125 79.179688 C 284.785156 80.894531 283.699219 81.882812 282.375 81.882812 C 281.511719 81.882812 280.4375 81.109375 279.929688 80.109375 C 279.359375 79 279.167969 77.21875 279.472656 75.925781 C 279.773438 74.636719 280.605469 73.46875 281.488281 73.089844 C 282.027344 72.851562 282.914062 72.875 283.453125 73.121094 Z M 283.453125 73.121094 "/>
<path style=" stroke:none;fill-rule:nonzero;fill:rgb(0%,0%,0%);fill-opacity:1;" d="M 107.171875 77.171875 L 107.171875 84.351562 L 109.636719 84.351562 L 109.636719 80.480469 C 109.636719 77.453125 109.671875 76.609375 109.78125 76.621094 C 109.847656 76.621094 111.40625 78.359375 113.222656 80.480469 C 116.296875 84.070312 116.554688 84.339844 116.902344 84.351562 L 117.257812 84.351562 L 117.257812 69.992188 L 114.679688 69.992188 L 114.660156 73.941406 L 114.625 77.890625 L 111.21875 73.941406 C 108.222656 70.488281 107.765625 69.992188 107.484375 69.992188 L 107.171875 69.992188 Z M 107.171875 77.171875 "/>
<path style=" stroke:none;fill-rule:nonzero;fill:rgb(0%,0%,0%);fill-opacity:1;" d="M 121.046875 77.171875 L 118.179688 84.351562 L 120.902344 84.351562 L 121.285156 83.285156 L 121.652344 82.21875 L 124.0625 82.242188 L 126.472656 82.277344 L 127.191406 84.292969 L 128.617188 84.328125 L 130.027344 84.363281 L 129.769531 83.65625 C 129.613281 83.261719 128.503906 80.425781 127.292969 77.339844 C 126.082031 74.253906 124.9375 71.339844 124.757812 70.855469 C 124.480469 70.140625 124.378906 69.992188 124.164062 69.992188 C 123.941406 69.992188 123.636719 70.675781 121.046875 77.171875 Z M 124.859375 77.585938 C 125.242188 78.707031 125.554688 79.683594 125.554688 79.75 C 125.554688 79.820312 125.015625 79.863281 124.042969 79.863281 C 122.886719 79.863281 122.527344 79.832031 122.527344 79.71875 C 122.527344 79.605469 123.347656 77.148438 123.941406 75.5 C 124.03125 75.21875 124.152344 75.5 124.859375 77.585938 Z M 124.859375 77.585938 "/>
<path style=" stroke:none;fill-rule:nonzero;fill:rgb(0%,0%,0%);fill-opacity:1;" d="M 141.472656 77.171875 L 141.472656 84.351562 L 144.164062 84.351562 L 144.164062 69.992188 L 141.472656 69.992188 Z M 141.472656 77.171875 "/>
<path style=" stroke:none;fill-rule:nonzero;fill:rgb(0%,0%,0%);fill-opacity:1;" d="M 158.960938 77.171875 L 158.960938 84.351562 L 161.539062 84.351562 L 161.5625 80.414062 L 161.597656 76.476562 L 164.957031 80.359375 C 168.097656 83.980469 168.34375 84.238281 168.679688 84.238281 L 169.050781 84.238281 L 169.050781 69.992188 L 166.585938 69.992188 L 166.585938 73.929688 C 166.585938 76.34375 166.539062 77.84375 166.484375 77.824219 C 166.417969 77.800781 164.859375 76.039062 162.996094 73.886719 C 159.980469 70.398438 159.589844 69.992188 159.296875 69.992188 L 158.960938 69.992188 Z M 158.960938 77.171875 "/>
<path style=" stroke:none;fill-rule:nonzero;fill:rgb(0%,0%,0%);fill-opacity:1;" d="M 175.742188 70.070312 C 175.664062 70.207031 170.058594 84.214844 170.058594 84.292969 C 170.058594 84.328125 170.664062 84.351562 171.394531 84.351562 L 172.726562 84.351562 L 173.097656 83.285156 L 173.480469 82.21875 L 178.300781 82.21875 L 178.679688 83.285156 L 179.050781 84.351562 L 180.453125 84.351562 C 181.730469 84.351562 181.839844 84.339844 181.785156 84.148438 C 181.75 84.046875 180.496094 80.828125 178.996094 77.003906 C 176.671875 71.082031 176.238281 70.050781 176.035156 70.015625 C 175.898438 69.992188 175.777344 70.015625 175.742188 70.070312 Z M 176.707031 77.644531 C 177.109375 78.796875 177.402344 79.761719 177.367188 79.796875 C 177.277344 79.898438 174.320312 79.875 174.320312 79.773438 C 174.320312 79.515625 175.820312 75.378906 175.898438 75.457031 C 175.945312 75.5 176.316406 76.488281 176.707031 77.644531 Z M 176.707031 77.644531 "/>
<path style=" stroke:none;fill-rule:nonzero;fill:rgb(0%,0%,0%);fill-opacity:1;" d="M 182.839844 77.171875 L 182.839844 84.351562 L 190.125 84.351562 L 190.125 81.320312 L 185.53125 81.320312 L 185.53125 69.992188 L 182.839844 69.992188 Z M 182.839844 77.171875 "/>
<path style=" stroke:none;fill-rule:nonzero;fill:rgb(0%,0%,0%);fill-opacity:1;" d="M 198.644531 77.171875 L 198.644531 84.375 L 201.089844 84.328125 C 203.175781 84.273438 203.632812 84.238281 204.261719 84.027344 C 205.765625 83.542969 207.175781 82.296875 207.894531 80.816406 C 208.5 79.59375 208.667969 78.789062 208.667969 77.117188 C 208.667969 75.433594 208.5 74.636719 207.882812 73.371094 C 207.175781 71.921875 205.808594 70.800781 204.140625 70.273438 C 203.65625 70.117188 202.972656 70.058594 201.089844 70.027344 L 198.644531 69.972656 Z M 203.949219 73.390625 C 205.191406 74.007812 205.820312 75.121094 205.910156 76.847656 C 205.976562 78.316406 205.707031 79.257812 204.96875 80.078125 C 204.675781 80.402344 204.261719 80.75 204.039062 80.875 C 203.523438 81.132812 202.421875 81.355469 201.839844 81.300781 L 201.390625 81.265625 L 201.359375 77.128906 L 201.335938 73 L 202.324219 73.042969 C 203.117188 73.078125 203.445312 73.15625 203.949219 73.390625 Z M 203.949219 73.390625 "/>
<path style=" stroke:none;fill-rule:nonzero;fill:rgb(0%,0%,0%);fill-opacity:1;" d="M 210.417969 77.171875 L 210.417969 84.351562 L 217.589844 84.351562 L 217.589844 81.320312 L 212.996094 81.320312 L 212.996094 78.40625 L 215.910156 78.40625 L 215.910156 75.601562 L 212.996094 75.601562 L 212.996094 72.910156 L 217.480469 72.910156 L 217.480469 69.992188 L 210.417969 69.992188 Z M 210.417969 77.171875 "/>
<path style=" stroke:none;fill-rule:nonzero;fill:rgb(0%,0%,0%);fill-opacity:1;" d="M 227.0625 70.351562 C 227.007812 70.554688 224.765625 84.261719 224.765625 84.429688 C 224.765625 84.542969 225.078125 84.574219 225.941406 84.574219 L 227.109375 84.574219 L 227.175781 84.203125 C 227.210938 84.015625 227.410156 82.679688 227.625 81.265625 C 228.117188 78.003906 228.117188 78.035156 228.273438 78.171875 C 228.351562 78.226562 229.058594 79.695312 229.855469 81.421875 C 231.300781 84.5625 231.3125 84.574219 231.648438 84.574219 C 231.996094 84.574219 232.007812 84.5625 233.117188 82.019531 C 234.96875 77.777344 234.878906 77.96875 234.976562 78.292969 C 235.023438 78.449219 235.246094 79.808594 235.472656 81.320312 C 235.683594 82.835938 235.898438 84.183594 235.917969 84.316406 C 235.976562 84.5625 236.019531 84.574219 237.265625 84.574219 C 238.554688 84.574219 238.554688 84.574219 238.5 84.316406 C 238.441406 84.058594 236.199219 70.375 236.199219 70.261719 C 236.199219 70.230469 236.089844 70.21875 235.953125 70.238281 C 235.742188 70.273438 235.402344 70.933594 233.746094 74.671875 C 232.667969 77.09375 231.761719 79.078125 231.726562 79.078125 C 231.695312 79.078125 230.730469 77.082031 229.585938 74.648438 C 227.996094 71.226562 227.46875 70.21875 227.308594 70.21875 C 227.199219 70.21875 227.097656 70.285156 227.0625 70.351562 Z M 227.0625 70.351562 "/>
<path style=" stroke:none;fill-rule:nonzero;fill:rgb(0%,0%,0%);fill-opacity:1;" d="M 239.898438 77.394531 L 239.898438 84.574219 L 247.074219 84.574219 L 247.074219 81.660156 L 242.476562 81.660156 L 242.476562 78.628906 L 245.28125 78.628906 L 245.28125 75.824219 L 242.464844 75.824219 L 242.5 74.46875 L 242.535156 73.121094 L 244.777344 73.101562 L 247.019531 73.078125 L 247.050781 71.640625 L 247.085938 70.21875 L 239.898438 70.21875 Z M 239.898438 77.394531 "/>
<path style=" stroke:none;fill-rule:nonzero;fill:rgb(0%,0%,0%);fill-opacity:1;" d="M 250.660156 73.582031 C 251.582031 75.433594 252.34375 77.015625 252.34375 77.105469 C 252.34375 77.195312 251.457031 78.84375 250.371094 80.761719 C 249.28125 82.691406 248.375 84.339844 248.339844 84.429688 C 248.296875 84.542969 248.566406 84.574219 249.742188 84.574219 L 251.199219 84.574219 L 252.523438 82.164062 C 253.25 80.839844 253.878906 79.75 253.921875 79.75 C 253.96875 79.75 254.617188 80.839844 255.382812 82.164062 L 256.769531 84.574219 L 258.429688 84.574219 C 259.339844 84.574219 260.078125 84.550781 260.078125 84.519531 C 260.078125 84.484375 259.070312 82.769531 257.835938 80.695312 C 256.601562 78.617188 255.59375 76.878906 255.59375 76.835938 C 255.59375 76.746094 258.53125 71.496094 259.089844 70.578125 L 259.316406 70.21875 L 256.324219 70.21875 L 255.222656 72.238281 C 254.605469 73.347656 254.082031 74.253906 254.046875 74.253906 C 254.003906 74.253906 253.441406 73.347656 252.792969 72.238281 L 251.625 70.21875 L 248.980469 70.21875 Z M 250.660156 73.582031 "/>
<path style=" stroke:none;fill-rule:nonzero;fill:rgb(0%,0%,0%);fill-opacity:1;" d="M 261.757812 77.394531 L 261.757812 84.574219 L 264.449219 84.574219 L 264.449219 70.21875 L 261.757812 70.21875 Z M 261.757812 77.394531 "/>
</g>
</svg>
